{"glyphs":{":":{"x_min":0,"x_max":200,"ha":200,"o":"m 187 423 q 187 408 182 393 q 177 377 167 364 q 158 352 145 343 q 132 335 115 335 q 95 335 85 348 q 74 361 74 383 q 74 396 80 412 q 85 427 95 440 q 105 453 118 461 q 131 469 147 469 q 165 469 176 457 q 187 444 187 423 z m 138 74 q 138 59 133 43 q 128 27 118 14 q 109 1 96 -7 q 83 -15 66 -15 q 46 -15 36 -2 q 25 11 25 33 q 25 47 31 63 q 36 78 46 91 q 56 104 69 112 q 83 120 98 120 q 116 120 127 107 q 138 95 138 74 z"},"$":{"x_min":0,"x_max":402,"ha":402,"o":"m 122 464 q 122 455 125 445 q 128 435 136 424 q 145 413 159 401 q 174 390 197 376 l 222 553 q 199 551 181 543 q 162 534 149 521 q 136 509 129 494 q 122 479 122 464 z m 300 167 q 300 183 296 196 q 292 210 282 223 q 272 235 258 248 q 243 260 221 273 l 189 46 q 213 51 233 62 q 253 73 268 89 q 283 105 291 125 q 300 145 300 167 z m 387 559 q 390 557 385 547 q 379 538 371 527 q 363 516 354 506 q 344 497 340 494 l 326 496 q 314 512 297 526 q 280 541 260 548 l 233 357 q 267 340 291 323 q 315 306 331 288 q 346 270 354 250 q 361 229 361 204 q 361 167 347 133 q 333 98 309 70 q 284 42 251 21 q 219 0 182 -8 l 173 -67 q 169 -71 166 -73 q 163 -76 160 -77 q 157 -79 153 -80 q 149 -81 144 -82 l 134 -72 l 142 -15 q 138 -15 135 -15 q 131 -15 128 -15 q 110 -15 87 -9 q 63 -3 42 7 q 21 16 7 28 q -8 41 -8 53 q -8 59 -2 69 q 3 80 11 91 q 19 102 28 110 q 37 118 43 118 q 48 118 56 107 q 64 97 77 83 q 89 70 107 59 q 125 47 150 44 l 185 292 l 173 298 q 143 313 122 330 q 101 346 88 363 q 76 380 70 398 q 65 416 65 432 q 65 459 77 486 q 88 513 110 536 q 131 559 162 575 q 192 591 229 598 l 236 653 q 243 657 246 659 q 249 661 250 662 q 252 663 255 664 q 258 665 265 667 l 275 656 l 268 601 l 268 601 q 303 601 334 588 q 365 576 387 559 z"},"?":{"x_min":0,"x_max":397,"ha":397,"o":"m 216 74 q 216 59 211 43 q 206 27 196 14 q 187 1 173 -7 q 160 -15 143 -15 q 125 -15 113 -2 q 102 11 102 33 q 102 47 108 63 q 113 78 123 91 q 133 104 146 112 q 159 120 175 120 q 194 120 205 107 q 216 95 216 74 z m 395 579 q 395 536 383 504 q 370 472 351 445 q 332 419 309 396 q 287 374 266 350 q 245 326 229 299 q 213 272 208 237 l 202 190 q 193 183 186 178 q 178 174 166 170 l 155 180 l 157 237 q 158 270 170 297 q 182 324 200 349 q 218 374 238 397 q 259 420 276 444 q 293 468 305 494 q 317 521 317 551 q 317 600 296 626 q 274 652 232 652 q 212 652 196 643 q 181 633 171 617 q 162 602 159 581 q 156 560 160 536 q 149 531 141 528 q 132 525 124 523 q 116 521 108 519 q 100 518 89 517 l 79 532 q 79 563 93 593 q 106 623 132 646 q 157 670 193 684 q 229 698 274 698 q 305 698 328 689 q 351 680 365 664 q 380 647 388 626 q 395 604 395 579 z"},"<":{"x_min":0,"x_max":410,"ha":410,"o":"m 393 427 q 391 422 389 415 q 387 409 384 402 q 382 395 379 388 q 377 381 375 377 l 111 275 l 348 173 l 353 155 q 347 150 343 146 l 334 140 q 331 136 325 133 q 320 129 313 125 l 35 246 l 24 259 q 27 270 33 284 q 39 297 43 305 l 384 439 z"},"'":{"x_min":0,"x_max":200,"ha":200,"o":"m 149 427 q 141 422 132 421 q 124 419 113 419 l 129 675 q 135 678 143 681 q 150 685 158 688 q 167 691 174 694 q 182 697 187 698 l 205 688 z"},"=":{"x_min":0,"x_max":410,"ha":410,"o":"m 393 364 q 392 359 389 353 l 384 341 q 382 335 379 329 q 376 324 374 320 l 53 320 l 44 332 q 48 341 53 354 q 59 366 64 376 l 384 376 z m 374 218 q 372 213 370 207 l 365 194 q 362 188 359 183 q 356 177 354 173 l 34 173 l 24 185 q 28 195 34 207 q 39 220 44 229 l 365 229 z"},"a":{"x_min":0,"x_max":450,"ha":450,"o":"m 294 210 q 298 232 302 256 q 306 280 310 302 q 314 324 318 342 q 321 360 323 371 q 315 377 307 383 q 298 389 288 394 q 278 399 267 403 q 256 406 244 406 q 222 406 202 395 q 182 384 165 366 q 148 348 135 324 q 122 301 112 277 q 103 252 98 228 q 93 204 93 185 q 93 153 98 128 q 104 103 113 84 q 122 66 135 57 q 147 47 162 47 q 174 47 191 62 q 208 77 226 100 q 244 124 262 153 q 280 182 294 210 z m 440 33 q 397 5 371 -7 q 345 -20 331 -20 q 322 -20 314 -14 q 306 -8 300 9 q 293 26 290 56 q 286 85 286 133 q 273 110 255 84 q 237 57 216 34 q 195 11 173 -5 q 150 -20 130 -20 q 114 -20 95 -11 q 77 -1 62 19 q 46 39 36 71 q 26 103 26 149 q 26 188 35 224 q 44 261 62 295 q 80 329 106 358 q 132 388 167 411 q 180 420 196 428 q 212 437 229 443 q 246 449 262 453 q 279 457 294 457 q 304 457 314 454 q 324 452 333 447 q 342 443 351 438 q 359 433 366 428 q 377 436 390 443 q 403 451 416 457 l 426 440 q 417 433 412 428 q 407 422 403 415 q 398 408 396 398 q 393 388 389 371 q 382 336 375 299 q 369 262 364 229 q 359 197 357 172 q 354 147 354 136 q 354 108 356 89 q 357 70 360 59 q 363 47 368 42 q 372 37 378 37 q 388 37 401 40 q 415 42 434 51 z"},"L":{"x_min":0,"x_max":448,"ha":448,"o":"m 414 119 q 404 77 394 45 q 384 14 378 0 l 0 0 l 3 21 q 34 28 52 36 q 71 44 72 51 l 143 564 q 144 570 129 579 q 114 587 82 594 l 85 615 l 285 615 l 282 594 q 251 587 233 579 q 214 571 213 564 l 146 75 q 145 66 148 60 q 151 54 160 51 q 169 47 185 45 q 201 44 225 44 l 287 44 q 308 44 322 46 q 336 49 348 57 q 360 66 371 83 q 381 99 395 128 z"},"3":{"x_min":0,"x_max":402,"ha":402,"o":"m 358 489 q 358 462 349 440 q 341 417 326 398 q 311 379 290 365 q 270 351 246 341 q 268 338 287 326 q 305 314 318 296 q 332 278 339 256 q 346 233 346 209 q 346 163 331 122 q 316 82 288 51 q 260 21 221 3 q 181 -15 132 -15 q 97 -15 64 2 q 31 20 -6 58 l 13 91 q 32 74 47 63 q 62 53 75 46 q 89 40 103 38 q 117 35 134 35 q 168 35 195 48 q 221 62 238 84 q 256 106 265 135 q 274 164 274 196 q 274 224 265 245 q 257 265 243 278 q 229 292 212 298 q 194 304 177 304 l 168 304 q 166 304 163 304 q 161 303 158 303 q 155 302 148 301 l 145 330 q 173 338 199 350 q 225 361 245 378 q 265 396 276 419 q 288 443 288 475 q 288 490 284 505 q 280 520 271 531 q 262 543 248 550 q 234 557 215 557 q 198 557 184 551 q 170 544 160 533 q 150 521 145 507 q 140 492 140 475 q 124 467 109 462 q 95 458 76 456 l 66 471 q 69 492 85 515 q 102 538 126 558 q 150 577 181 590 q 211 603 242 603 q 271 603 293 594 q 315 584 330 568 q 344 552 351 531 q 358 511 358 489 z"},";":{"x_min":0,"x_max":200,"ha":200,"o":"m 187 423 q 187 408 182 393 q 177 377 167 364 q 158 352 145 343 q 132 335 115 335 q 95 335 85 348 q 74 361 74 383 q 74 396 80 412 q 85 427 95 440 q 105 453 118 461 q 131 469 147 469 q 165 469 176 457 q 187 444 187 423 z m 148 50 q 148 37 142 21 q 137 4 127 -15 q 117 -33 104 -53 q 90 -72 75 -90 q 59 -108 42 -124 q 25 -139 8 -149 l -9 -132 q 66 -53 66 0 q 66 9 63 17 q 61 26 54 32 q 48 38 38 40 q 28 43 13 41 l 9 63 q 14 69 29 77 q 43 85 60 93 q 77 101 93 107 q 108 112 116 112 q 125 107 131 102 q 137 98 141 91 q 145 84 146 75 q 148 65 148 50 z"},"J":{"x_min":0,"x_max":282,"ha":282,"o":"m 304 594 q 273 587 255 579 q 236 571 235 564 l 171 100 q 163 42 150 3 q 138 -36 122 -62 q 106 -89 87 -107 q 69 -125 49 -141 q 36 -151 20 -160 q 5 -168 -10 -174 q -26 -180 -39 -183 q -52 -186 -61 -186 q -75 -186 -87 -181 q -99 -177 -108 -171 q -118 -165 -123 -158 q -129 -151 -129 -147 q -129 -142 -122 -134 q -115 -125 -105 -118 q -96 -110 -86 -104 q -76 -98 -70 -98 q -65 -98 -60 -103 q -55 -107 -48 -112 q -41 -117 -30 -122 q -20 -126 -5 -126 q 7 -126 21 -118 q 35 -109 49 -88 q 63 -66 76 -29 q 88 8 96 65 l 165 564 q 166 567 162 570 q 159 574 150 578 q 141 582 125 586 q 108 590 82 594 l 84 615 l 307 615 z"},"V":{"x_min":0,"x_max":593,"ha":593,"o":"m 634 594 q 603 588 585 582 q 566 576 560 562 l 316 29 q 311 18 301 10 q 292 2 280 -3 q 269 -8 259 -11 q 248 -14 242 -15 l 125 562 q 123 575 110 583 q 97 590 68 594 l 71 615 l 265 615 l 262 594 q 227 592 212 584 q 198 577 201 562 l 294 95 l 509 562 q 516 576 500 583 q 484 589 449 594 l 452 615 l 637 615 z"},"\"":{"x_min":0,"x_max":386,"ha":386,"o":"m 149 427 q 141 422 132 421 q 124 419 113 419 l 129 675 q 135 678 143 681 q 150 685 159 688 q 167 691 175 694 q 182 697 187 698 l 205 688 z m 308 427 q 300 422 292 421 q 283 419 272 419 l 288 675 q 294 678 302 681 q 310 685 318 688 q 326 691 334 694 q 341 697 346 698 l 364 688 z"},"7":{"x_min":0,"x_max":402,"ha":402,"o":"m 423 570 q 396 517 368 463 q 340 410 313 357 q 286 305 261 256 q 237 207 216 163 q 194 119 177 83 q 160 47 149 21 q 117 -2 73 -15 l 57 1 q 105 76 145 144 q 185 212 220 277 q 255 341 287 403 q 319 465 352 527 l 152 527 q 146 527 139 526 q 132 525 125 519 q 117 512 107 497 q 97 482 83 454 l 65 463 q 68 474 73 491 q 77 508 82 526 q 87 544 92 561 q 97 577 101 588 l 411 588 z"},"S":{"x_min":0,"x_max":439,"ha":439,"o":"m 426 585 q 428 583 426 578 q 424 573 420 566 q 416 560 409 552 q 403 544 397 537 q 391 530 385 524 q 379 519 376 517 l 362 520 q 354 532 343 542 q 333 553 321 561 q 309 569 295 574 q 282 579 267 579 q 241 579 220 571 q 200 562 186 549 q 172 535 165 519 q 157 502 157 486 q 157 475 161 463 q 164 452 175 439 q 186 426 205 412 q 225 397 258 381 q 296 361 323 343 q 350 325 367 305 q 383 286 391 264 q 398 242 398 215 q 398 169 379 127 q 360 86 327 54 q 295 22 252 4 q 208 -15 160 -15 q 142 -15 118 -9 q 94 -2 73 8 q 52 18 37 31 q 23 43 23 56 q 23 62 29 73 q 35 84 43 96 q 51 107 60 116 q 69 124 75 124 q 81 124 89 112 q 98 100 111 85 q 125 71 144 59 q 164 47 193 47 q 223 47 248 57 q 274 67 293 84 q 312 102 323 125 q 334 148 334 176 q 334 196 328 213 q 322 230 308 247 q 293 263 269 279 q 244 295 207 313 q 175 328 154 345 q 133 363 121 381 q 109 398 104 417 q 99 436 99 453 q 99 485 114 517 q 129 549 156 574 q 183 599 221 614 q 260 630 307 630 q 342 630 372 616 q 402 603 426 585 z"},"}":{"x_min":0,"x_max":313,"ha":313,"o":"m 272 318 q 216 303 185 273 q 153 244 148 206 q 145 186 145 172 q 144 158 145 147 q 145 136 146 126 q 147 116 147 105 q 148 93 147 79 q 147 65 144 45 q 139 12 125 -17 q 110 -46 88 -71 q 65 -96 35 -116 q 5 -137 -31 -154 l -40 -130 q -21 -118 -3 -103 q 15 -88 28 -70 q 42 -52 51 -30 q 61 -8 64 17 q 67 36 68 50 q 68 64 68 75 q 68 87 67 97 q 66 107 66 119 q 65 130 66 145 q 66 159 69 178 q 72 198 80 218 q 88 237 101 254 q 114 271 131 285 q 148 299 169 308 q 147 313 133 324 q 119 335 112 352 q 104 368 103 390 q 102 413 106 440 q 110 469 116 489 q 122 510 127 528 q 133 546 138 564 q 144 582 147 606 q 151 633 151 654 q 150 675 144 692 q 137 709 124 723 q 110 737 88 751 l 103 781 q 139 765 164 746 q 188 728 203 706 q 217 683 222 656 q 226 628 221 593 q 217 564 211 545 q 206 526 200 509 q 194 491 189 471 q 183 452 179 422 q 173 382 188 362 q 204 342 238 342 l 247 342 q 250 342 252 342 q 254 342 258 343 q 261 344 268 345 z"},"Z":{"x_min":0,"x_max":499,"ha":499,"o":"m 118 49 l 355 49 q 365 49 374 53 q 382 58 391 70 q 400 82 410 103 q 420 123 433 155 l 457 148 q 454 132 451 112 q 447 92 444 72 q 440 52 437 33 q 434 14 431 0 l 24 0 l 15 22 l 401 570 l 195 570 q 188 570 178 564 q 168 559 158 547 q 147 536 137 517 q 127 498 118 470 l 93 476 l 128 628 q 140 623 149 621 q 159 618 169 617 q 179 616 189 615 q 199 615 212 615 l 491 615 l 500 593 z"},"x":{"x_min":0,"x_max":440,"ha":440,"o":"m 428 35 q 407 21 391 10 q 375 0 362 -7 q 349 -14 339 -17 q 328 -20 319 -20 q 304 -20 289 -5 q 274 11 260 36 q 246 62 231 95 q 217 129 203 165 q 192 150 177 131 q 163 112 147 91 q 130 69 113 45 q 95 21 78 -5 q 60 -7 38 -11 q 15 -15 -3 -20 l -14 -3 q 8 17 34 42 q 60 68 87 97 q 113 125 139 154 q 165 183 187 209 q 172 247 159 282 q 145 317 132 344 q 118 371 105 387 q 93 404 81 404 q 77 404 67 402 q 57 400 46 397 q 34 395 20 391 l 13 410 q 34 419 52 427 q 71 436 87 443 q 103 449 114 453 q 125 457 130 457 q 143 457 157 440 q 170 424 185 396 q 199 369 213 333 q 228 298 243 260 q 263 284 282 309 q 301 334 315 355 q 330 376 339 391 q 348 406 348 409 q 348 414 347 418 q 345 422 340 424 q 335 426 326 426 q 316 426 301 425 l 300 445 q 332 452 357 454 q 382 457 394 457 q 417 457 427 449 q 436 441 436 431 q 436 421 425 405 q 413 388 391 362 q 369 335 335 300 q 302 264 259 217 q 273 182 286 149 q 300 117 312 92 q 325 67 337 52 q 350 37 361 37 q 372 37 387 41 q 402 44 420 53 z"},")":{"x_min":0,"x_max":295,"ha":295,"o":"m 244 306 q 233 226 208 153 q 183 80 148 20 q 112 -41 68 -85 q 23 -130 -28 -154 l -40 -132 q -7 -108 25 -69 q 58 -29 85 25 q 113 79 134 146 q 155 213 166 292 q 176 363 175 433 q 174 503 164 566 q 153 628 134 679 q 114 729 86 761 l 104 783 q 150 759 181 710 q 213 662 230 598 q 248 534 251 459 q 255 384 244 306 z"},"&":{"x_min":0,"x_max":581,"ha":581,"o":"m 252 552 q 248 524 251 493 q 254 462 263 430 q 295 450 317 468 q 339 485 353 502 q 367 519 374 535 q 381 551 384 567 q 387 585 386 601 q 385 617 379 629 q 373 642 361 649 q 349 656 331 656 q 313 656 300 647 q 286 638 276 623 q 267 608 260 590 q 254 571 252 552 z m 218 41 q 257 41 290 53 q 324 66 352 86 q 333 112 313 142 q 294 172 276 205 q 258 238 242 273 q 227 308 215 344 q 188 323 169 304 q 149 285 136 266 q 123 247 115 227 q 108 208 105 187 q 101 153 108 126 q 116 99 132 80 q 148 61 171 51 q 193 41 218 41 z m 622 365 q 609 350 597 340 q 585 330 573 322 q 566 326 556 330 q 546 333 537 336 q 527 338 517 340 q 507 341 500 342 q 503 333 505 325 q 507 316 507 306 q 508 296 507 284 q 506 271 504 255 q 499 221 481 184 q 463 146 435 111 q 447 97 458 85 q 469 72 479 62 q 494 46 513 41 q 532 36 558 43 l 559 22 q 518 3 491 -6 q 464 -15 454 -15 q 444 -15 424 3 q 404 21 377 54 q 339 23 294 4 q 248 -15 197 -15 q 156 -15 123 -2 q 90 11 68 35 q 46 60 36 95 q 27 131 33 177 q 37 205 50 233 q 63 261 85 288 q 107 315 136 341 q 166 367 201 392 q 193 426 190 459 q 188 493 192 524 q 197 563 213 597 q 229 631 253 656 q 276 680 304 694 q 333 708 362 708 q 390 708 408 698 q 426 687 436 670 q 446 652 449 630 q 452 607 448 583 q 440 533 403 489 q 365 445 309 409 l 275 388 q 287 355 302 323 q 317 291 334 260 q 352 229 371 199 q 390 170 409 145 q 425 167 435 190 q 444 213 448 235 q 452 258 448 278 q 444 298 436 313 q 428 328 416 336 q 404 344 391 344 l 383 358 q 389 364 399 372 q 409 379 419 383 l 614 383 z"},"_":{"x_min":0,"x_max":436,"ha":436,"o":"m 357 -76 q 354 -86 348 -99 q 343 -111 338 -120 l -18 -120 l -26 -107 q -23 -97 -18 -85 q -12 -74 -6 -64 l 348 -64 z"},"v":{"x_min":0,"x_max":446,"ha":446,"o":"m 436 416 q 436 400 425 370 q 415 339 390 289 q 365 239 324 168 q 283 97 223 1 q 219 -1 213 -4 q 207 -7 201 -10 q 194 -12 188 -15 q 182 -18 177 -20 l 161 -5 q 158 22 153 56 q 148 90 142 126 q 137 162 130 198 q 124 234 118 266 q 112 298 107 323 q 101 349 97 364 q 93 377 89 385 q 84 393 80 397 q 75 401 71 403 q 66 404 62 404 q 57 404 49 402 q 42 400 34 398 q 25 396 14 392 l 8 410 q 28 419 47 428 q 66 437 82 443 q 98 449 109 453 q 121 457 127 457 q 134 457 139 454 q 145 451 149 443 q 153 436 157 424 q 161 412 166 395 q 169 382 175 355 q 181 329 187 295 q 193 261 199 225 q 206 188 211 157 q 216 125 219 102 q 222 80 222 73 q 258 132 286 184 q 313 236 331 278 q 350 319 359 348 q 368 376 368 389 q 368 399 360 404 q 352 409 338 409 q 330 409 320 407 q 310 406 299 402 l 290 419 q 304 426 320 433 q 335 440 351 445 q 366 451 379 454 q 392 457 400 457 q 417 457 427 448 q 436 439 436 416 z"},"O":{"x_min":0,"x_max":545,"ha":545,"o":"m 457 369 q 457 410 448 447 q 439 483 422 510 q 405 537 380 553 q 355 569 323 569 q 286 569 257 554 q 227 540 204 516 q 181 492 165 460 q 149 429 138 395 q 128 360 123 325 q 118 291 118 260 q 118 214 128 176 q 137 137 155 109 q 172 81 197 65 q 222 49 252 49 q 290 49 320 64 q 350 79 372 104 q 395 129 411 162 q 427 195 438 231 q 448 267 452 302 q 457 338 457 369 z m 530 378 q 530 343 524 308 q 519 272 507 237 q 496 203 479 170 q 462 138 440 110 q 419 83 396 61 q 373 38 347 21 q 321 4 292 -5 q 263 -15 230 -15 q 183 -15 148 5 q 113 25 90 59 q 67 94 55 140 q 44 186 44 237 q 44 268 50 302 q 55 336 66 371 q 76 405 91 438 q 106 470 126 497 q 146 524 170 549 q 194 573 221 591 q 248 609 279 619 q 310 630 344 630 q 392 630 427 610 q 462 590 485 555 q 508 521 519 475 q 530 429 530 378 z"},"(":{"x_min":0,"x_max":295,"ha":295,"o":"m 344 761 q 311 738 279 697 q 247 655 219 600 q 192 544 171 475 q 150 406 139 328 q 129 257 130 188 q 130 119 141 59 q 151 -2 171 -51 q 191 -101 219 -132 l 201 -154 q 155 -129 124 -83 q 92 -36 74 26 q 56 88 53 162 q 50 235 61 313 q 72 393 97 468 q 122 542 157 604 q 192 667 237 713 q 282 759 333 783 z"},"C":{"x_min":0,"x_max":486,"ha":486,"o":"m 496 581 q 498 579 493 570 q 487 562 479 552 q 470 542 461 531 q 451 521 445 516 l 430 520 q 410 542 382 556 q 353 571 313 571 q 293 571 269 562 q 245 552 225 537 q 194 513 173 477 q 151 441 137 401 q 124 361 117 322 q 111 283 111 252 q 111 199 125 160 q 140 121 162 96 q 185 71 212 59 q 239 47 265 47 q 292 47 331 64 q 369 82 424 125 q 426 124 428 121 q 430 118 432 114 q 434 111 436 108 q 437 104 438 103 q 405 70 376 47 q 347 25 320 11 q 294 -2 270 -8 q 246 -13 223 -13 q 187 -13 153 3 q 119 19 94 49 q 68 79 52 123 q 37 167 37 224 q 37 270 46 318 q 55 365 74 410 q 93 456 123 496 q 153 537 194 570 q 229 598 271 614 q 312 630 358 630 q 406 630 440 616 q 475 602 496 581 z"},"W":{"x_min":0,"x_max":767,"ha":767,"o":"m 813 594 q 799 591 786 588 q 773 585 764 582 q 754 578 747 574 q 741 570 739 564 l 563 29 q 559 18 551 10 q 542 2 532 -3 q 522 -8 512 -11 q 502 -14 496 -15 l 416 462 l 228 29 q 223 18 213 10 q 204 2 193 -3 q 182 -8 172 -11 q 162 -14 156 -15 l 120 560 q 119 572 107 580 q 95 588 63 594 l 66 615 l 257 615 l 254 594 q 232 592 219 588 q 206 584 199 580 q 192 576 190 571 q 188 565 188 560 l 217 124 l 430 615 l 457 615 l 545 124 l 688 564 q 690 570 686 574 q 682 579 673 582 q 664 585 652 588 q 639 591 624 594 l 627 615 l 815 615 z"},"A":{"x_min":0,"x_max":560,"ha":560,"o":"m 181 217 l 111 54 q 104 39 119 32 q 133 26 171 21 l 168 0 l -17 0 l -14 21 q 17 27 35 33 q 54 40 60 54 l 298 600 q 304 606 313 612 q 322 618 331 624 q 340 629 349 635 q 357 640 364 643 l 469 54 q 470 47 473 42 q 476 37 481 33 q 487 29 497 26 q 507 23 523 21 l 521 0 l 333 0 l 335 21 q 370 23 385 31 q 400 39 397 54 l 369 217 z m 361 261 l 315 527 l 200 261 z"},"f":{"x_min":0,"x_max":273,"ha":273,"o":"m 441 685 q 431 678 419 669 q 407 661 396 654 q 385 646 375 642 q 366 637 360 637 q 354 637 347 646 q 341 654 333 665 q 325 675 315 683 q 305 692 291 692 q 272 692 258 681 q 244 670 233 652 q 223 633 215 610 q 207 586 202 561 q 196 535 193 510 q 189 485 187 465 l 184 442 l 309 442 l 319 428 q 314 421 306 413 q 297 405 288 398 q 279 391 270 385 q 262 378 257 376 q 254 383 249 387 q 244 391 235 394 q 227 396 213 397 q 200 398 182 398 l 179 398 l 144 94 q 138 41 122 -10 q 107 -60 84 -103 q 61 -146 30 -180 q 0 -215 -36 -237 l -49 -206 q -24 -192 -5 -163 q 15 -134 30 -96 q 45 -58 55 -15 q 64 28 69 68 l 107 398 l 33 398 l 26 413 l 75 442 l 112 442 q 117 481 123 517 q 130 553 142 585 q 154 618 174 646 q 193 674 224 697 q 237 706 250 714 q 262 723 274 729 q 287 735 301 739 q 314 742 329 742 q 351 742 368 734 q 385 726 399 716 q 413 706 423 697 q 434 688 441 685 z"},"Q":{"x_min":0,"x_max":554,"ha":554,"o":"m 457 369 q 457 410 448 447 q 439 483 422 510 q 405 537 380 553 q 355 569 323 569 q 286 569 257 554 q 227 540 204 516 q 181 492 165 460 q 149 429 138 395 q 128 360 123 325 q 118 291 118 260 q 118 214 128 176 q 137 137 155 109 q 172 81 197 65 q 222 49 252 49 q 290 49 320 64 q 350 79 372 104 q 395 129 411 162 q 427 195 438 231 q 448 267 452 302 q 457 338 457 369 z m 539 -57 q 525 -79 511 -95 q 498 -111 485 -122 q 473 -133 462 -139 q 452 -145 445 -145 q 417 -145 393 -131 q 369 -117 345 -96 q 322 -76 299 -53 q 275 -30 251 -14 q 241 -15 230 -15 q 183 -15 148 5 q 113 25 90 59 q 67 94 55 140 q 44 186 44 237 q 44 268 50 302 q 55 336 66 371 q 76 405 91 438 q 106 470 126 497 q 146 524 170 549 q 194 573 221 591 q 248 609 279 619 q 310 630 344 630 q 392 630 427 610 q 462 590 485 555 q 508 521 519 475 q 530 429 530 378 q 530 343 524 308 q 519 272 507 237 q 496 203 479 170 q 462 138 440 110 q 414 76 384 49 q 354 22 318 5 q 337 -7 355 -21 q 373 -36 390 -48 q 408 -61 425 -70 q 441 -78 458 -78 q 464 -78 470 -76 q 476 -74 484 -70 q 492 -65 503 -58 q 514 -51 529 -40 z"},"w":{"x_min":0,"x_max":630,"ha":630,"o":"m 624 420 q 624 407 622 390 q 619 373 613 349 q 606 325 594 293 q 583 261 564 219 q 545 176 518 123 q 492 69 455 1 q 451 -1 445 -4 q 439 -7 433 -10 q 427 -12 421 -15 q 415 -18 410 -20 l 394 -5 q 391 22 386 54 q 382 86 378 119 q 373 152 368 185 q 363 217 358 246 q 354 275 349 298 q 344 322 340 337 q 339 327 333 306 q 328 285 318 257 q 308 229 295 197 q 282 165 267 131 q 251 98 235 65 q 219 33 202 5 q 198 2 192 -1 q 186 -4 179 -8 q 172 -11 165 -15 q 159 -18 154 -20 l 138 -5 q 135 22 131 56 q 127 89 124 125 q 120 160 116 196 q 112 231 108 263 q 104 295 100 321 q 96 347 92 364 q 89 377 85 385 q 81 393 76 397 q 71 401 66 403 q 62 404 57 404 q 53 404 45 402 q 37 400 29 398 q 20 396 9 392 l 2 410 q 22 419 41 428 q 60 437 75 443 q 90 449 101 453 q 113 457 119 457 q 133 457 140 441 q 146 425 155 390 q 158 376 162 352 q 166 327 170 297 q 174 267 178 234 q 182 201 185 171 q 188 141 191 117 q 193 93 194 81 q 213 119 234 164 q 254 209 271 255 q 289 301 300 344 q 312 388 314 422 q 321 428 330 435 q 338 441 347 446 q 355 451 363 454 q 371 457 376 457 q 378 457 381 449 q 384 441 387 428 q 391 415 394 397 q 398 380 401 362 l 408 326 q 412 308 414 293 q 417 270 422 242 q 427 214 431 185 q 436 156 440 126 q 444 97 447 72 q 483 139 507 190 q 530 242 543 280 q 556 318 560 345 q 565 372 565 390 q 565 400 558 406 q 551 412 538 412 q 531 412 521 410 q 512 408 501 405 l 492 423 q 509 433 524 439 q 539 446 551 450 q 563 454 571 455 q 580 457 583 457 q 591 457 599 456 q 606 455 612 451 q 617 447 621 439 q 624 432 624 420 z"},"-":{"x_min":0,"x_max":313,"ha":313,"o":""},"E":{"x_min":0,"x_max":462,"ha":462,"o":"m 418 119 q 408 77 398 45 q 388 14 383 0 l 0 0 l 3 21 q 34 28 52 36 q 71 44 72 51 l 143 564 q 144 570 129 579 q 114 587 82 594 l 85 615 l 445 615 l 457 603 q 455 590 451 575 q 447 560 443 545 q 438 530 433 516 q 428 502 424 493 l 403 493 q 405 516 405 531 q 404 545 401 554 q 397 563 392 567 q 386 571 377 571 l 213 571 l 185 359 l 367 359 l 377 345 q 372 338 366 331 q 360 324 353 317 q 347 310 340 303 q 334 297 329 293 q 321 301 312 306 q 304 312 291 314 q 278 317 259 319 q 240 320 213 320 l 179 320 l 146 75 q 145 68 147 62 q 150 57 159 52 q 168 48 186 46 q 204 44 233 44 l 292 44 q 312 44 327 46 q 341 49 352 57 q 364 66 375 83 q 385 99 399 128 z"},"s":{"x_min":0,"x_max":347,"ha":347,"o":"m 341 412 q 331 401 322 392 q 312 383 304 376 q 295 369 289 365 q 282 362 279 362 q 272 362 265 370 q 258 379 249 389 q 240 399 228 407 q 216 416 200 416 q 187 416 173 411 q 160 406 150 397 q 139 388 133 375 q 126 362 126 346 q 126 329 142 310 q 159 291 198 273 q 218 264 238 251 q 258 239 274 223 q 290 208 300 187 q 310 167 310 141 q 310 107 293 78 q 275 48 248 27 q 221 5 188 -8 q 155 -20 123 -20 q 100 -20 78 -13 q 55 -7 38 3 q 20 14 9 26 q -2 38 -2 48 q -2 53 4 63 q 10 74 18 84 q 26 94 34 101 q 42 109 48 109 q 51 109 55 103 q 59 97 64 88 q 70 79 78 68 q 85 57 97 48 q 109 39 125 33 q 141 27 162 27 q 179 27 195 33 q 210 40 221 51 q 233 62 240 77 q 246 92 246 109 q 246 128 238 143 q 230 159 218 171 q 205 184 188 194 q 170 204 152 213 q 126 225 108 237 q 91 250 80 262 q 69 275 65 289 q 60 303 60 319 q 60 350 75 375 q 90 400 114 419 q 138 437 168 447 q 197 457 226 457 q 251 457 268 451 q 285 445 298 438 q 311 430 321 422 q 331 415 341 412 z"},">":{"x_min":0,"x_max":410,"ha":410,"o":"m 383 305 q 380 294 375 281 q 370 268 365 259 l 24 125 l 15 137 q 17 142 19 149 q 21 155 23 162 q 26 169 28 176 q 30 183 33 187 l 296 289 l 60 391 l 55 409 q 61 414 64 417 l 73 424 q 77 428 82 431 q 87 435 95 439 l 373 318 z"},"l":{"x_min":0,"x_max":235,"ha":235,"o":"m 213 35 q 189 20 171 10 q 152 -1 137 -8 q 123 -14 110 -17 q 97 -20 85 -20 q 71 -20 61 -5 q 50 9 50 38 q 50 50 53 80 q 57 109 63 149 q 69 190 76 239 q 84 287 92 338 q 100 389 107 438 q 115 488 121 531 q 126 574 130 607 q 134 640 134 657 q 134 668 132 675 q 129 682 126 685 q 123 688 118 689 q 113 690 109 690 q 105 690 96 688 q 88 686 80 683 q 70 680 58 677 l 51 696 q 71 705 92 713 q 113 722 131 728 q 148 734 162 738 q 176 742 182 742 q 196 742 204 733 q 212 725 212 702 q 212 683 208 649 q 205 616 199 573 q 193 529 185 480 q 177 430 169 379 q 162 329 154 280 q 146 230 140 188 q 134 146 131 115 q 127 83 127 66 q 127 49 132 43 q 136 37 144 37 q 155 37 170 41 q 185 45 207 53 z"},"8":{"x_min":0,"x_max":402,"ha":402,"o":"m 140 459 q 140 440 148 425 q 157 411 171 398 q 185 386 203 375 q 221 365 240 354 q 256 365 270 377 q 283 390 293 405 q 303 419 308 437 q 314 455 314 476 q 314 516 291 536 q 268 557 230 557 q 210 557 194 549 q 178 541 166 527 q 154 513 147 495 q 140 478 140 459 z m 289 167 q 289 194 281 213 q 272 233 258 248 q 244 263 226 275 q 208 287 188 298 q 165 282 146 266 q 127 249 114 229 q 101 210 94 187 q 87 164 87 134 q 87 113 93 95 q 100 77 112 63 q 124 50 141 42 q 158 34 180 34 q 207 34 228 46 q 248 58 262 77 q 275 96 282 120 q 289 144 289 167 z m 380 489 q 380 462 371 439 q 361 417 346 398 q 331 380 311 364 q 292 349 271 335 q 289 324 305 311 q 322 297 334 281 q 347 264 354 242 q 362 221 362 194 q 362 152 345 115 q 328 77 299 48 q 270 19 231 2 q 193 -15 152 -15 q 118 -15 93 -4 q 67 7 50 26 q 33 45 25 70 q 16 95 16 122 q 16 156 28 185 q 41 213 60 238 q 80 262 106 281 q 131 301 158 316 q 143 326 128 337 q 114 348 104 362 q 93 376 86 394 q 80 411 80 434 q 80 470 95 501 q 110 532 135 554 q 160 577 192 590 q 224 603 259 603 q 289 603 311 594 q 334 586 349 571 q 365 556 372 535 q 380 514 380 489 z"},"\\":{"x_min":0,"x_max":400,"ha":400,"o":"m 316 -164 q 311 -162 303 -159 q 295 -156 287 -153 q 279 -150 272 -146 q 265 -143 261 -139 l 71 770 l 89 781 q 103 777 117 771 q 132 765 144 757 l 333 -152 z"},"e":{"x_min":0,"x_max":393,"ha":393,"o":"m 191 382 q 175 367 159 346 q 144 325 132 301 q 119 276 111 250 q 103 223 101 197 q 165 222 202 242 q 239 263 258 281 q 277 299 283 315 q 288 332 288 349 q 288 364 284 375 q 280 386 274 393 q 268 399 260 403 q 251 406 243 406 q 235 406 220 400 q 205 395 191 382 z m 366 371 q 366 357 363 342 q 360 327 350 311 q 340 295 322 277 q 304 260 275 241 q 245 222 203 202 q 160 182 101 160 q 104 132 113 110 q 121 87 133 71 q 144 55 157 46 q 171 37 184 37 q 194 37 209 39 q 224 42 243 49 q 262 56 286 70 q 311 84 340 108 q 345 105 349 98 q 354 92 355 88 q 315 53 284 32 q 253 11 229 -1 q 205 -12 186 -16 q 167 -20 149 -20 q 133 -20 112 -11 q 92 -2 74 18 q 56 38 43 70 q 31 102 31 148 q 31 186 40 223 q 49 260 67 294 q 84 328 109 358 q 135 388 167 413 q 178 422 192 430 q 207 438 222 444 q 237 450 253 454 q 269 457 284 457 q 305 457 321 449 q 336 442 346 430 q 356 417 361 402 q 366 387 366 371 z"},"b":{"x_min":0,"x_max":467,"ha":467,"o":"m 295 392 q 286 392 268 380 q 250 368 229 346 q 208 325 186 295 q 164 266 146 230 q 140 195 137 168 q 135 140 135 125 q 135 112 142 98 q 150 83 163 71 q 175 58 191 50 q 207 42 224 42 q 242 42 257 48 q 272 55 285 65 q 298 75 308 87 q 318 100 326 112 q 337 129 344 148 q 351 167 355 187 q 359 206 360 224 q 362 242 362 259 q 362 292 356 318 q 350 343 340 359 q 331 376 319 384 q 307 392 295 392 z m 432 298 q 431 246 417 194 q 402 141 367 92 q 351 70 330 50 q 310 29 286 14 q 262 -1 235 -11 q 208 -20 177 -20 q 167 -20 154 -15 q 142 -10 129 0 q 116 9 103 21 q 91 33 81 47 q 72 61 66 76 q 60 91 60 106 q 60 119 63 146 q 66 173 72 210 q 77 247 83 290 q 90 333 96 377 q 103 422 110 466 q 116 509 121 547 q 126 584 130 613 q 133 642 133 657 q 133 668 130 675 q 128 682 124 685 q 120 688 116 689 q 111 690 107 690 q 103 690 94 688 q 86 686 78 683 q 69 680 58 677 l 52 696 q 72 705 94 713 q 115 722 134 728 q 153 734 167 738 q 181 742 187 742 q 201 742 206 733 q 211 725 211 702 q 211 687 208 662 q 206 638 202 606 q 198 575 192 538 q 187 501 180 462 q 174 423 168 383 q 162 343 156 306 q 181 348 208 377 q 234 406 259 424 q 284 441 306 449 q 328 457 343 457 q 362 457 378 447 q 395 436 407 416 q 419 396 426 366 q 433 336 432 298 z"},"%":{"x_min":0,"x_max":642,"ha":642,"o":"m 525 189 q 525 233 510 255 q 495 276 474 276 q 459 276 448 267 q 437 257 428 242 q 419 228 414 209 q 408 190 405 171 q 402 152 400 135 q 399 117 399 105 q 399 64 413 44 q 427 25 450 25 q 464 25 476 34 q 487 42 495 57 q 503 71 509 89 q 515 107 518 125 q 522 144 523 160 q 525 177 525 189 z m 592 184 q 592 152 580 117 q 569 82 548 52 q 527 23 498 4 q 469 -15 433 -15 q 410 -15 391 -5 q 373 5 360 23 q 347 41 340 65 q 333 90 333 118 q 333 139 338 162 q 343 185 353 207 q 363 229 377 249 q 391 269 408 283 q 426 298 447 307 q 468 316 491 316 q 515 316 534 306 q 553 296 565 278 q 578 260 585 236 q 592 212 592 184 z m 125 8 q 120 4 112 1 q 103 -3 94 -6 q 84 -9 75 -12 q 66 -15 60 -17 l 51 0 l 521 580 q 535 588 552 594 q 570 600 584 604 l 596 588 z m 247 476 q 247 521 232 542 q 217 563 195 563 q 180 563 168 554 q 157 544 149 530 q 141 515 135 496 q 129 477 126 458 q 123 439 122 422 q 120 404 120 392 q 120 351 135 332 q 149 312 172 312 q 186 312 197 321 q 208 330 217 344 q 225 358 231 376 q 237 394 240 412 q 244 431 245 447 q 247 464 247 476 z m 313 471 q 313 450 308 427 q 303 404 293 382 q 283 360 269 340 q 255 320 238 305 q 220 290 199 281 q 178 272 154 272 q 130 272 112 282 q 94 292 81 310 q 68 328 61 353 q 54 377 54 405 q 54 426 59 449 q 64 472 74 494 q 84 516 98 536 q 112 556 130 571 q 147 585 168 594 q 189 603 213 603 q 236 603 255 593 q 274 583 287 565 q 299 547 306 523 q 313 499 313 471 z"},"m":{"x_min":0,"x_max":721,"ha":721,"o":"m 690 35 q 645 9 615 -6 q 585 -20 564 -20 q 550 -20 540 -5 q 530 11 530 37 q 530 46 533 68 q 537 90 542 119 q 546 149 552 183 q 559 216 563 248 q 568 280 572 308 q 575 335 575 351 q 575 381 569 394 q 563 407 554 407 q 545 407 531 401 q 517 394 500 380 q 482 366 463 344 q 444 323 425 293 q 414 276 407 259 q 400 243 395 225 q 391 207 387 187 q 384 167 380 144 q 373 100 371 68 q 370 36 371 12 q 364 9 354 5 q 345 0 334 -4 q 324 -8 315 -12 q 305 -17 299 -20 l 283 -5 q 294 45 304 99 q 314 152 322 200 q 330 249 334 286 q 339 324 339 342 q 339 379 331 393 q 324 407 310 407 q 304 407 291 401 q 277 395 260 381 q 243 367 224 345 q 205 324 186 294 q 176 278 169 262 q 162 245 156 227 q 151 208 147 188 q 143 167 139 144 q 131 100 129 68 q 127 36 128 12 q 122 9 112 5 q 103 0 93 -4 q 83 -8 73 -12 q 64 -17 58 -20 l 42 -5 q 49 29 55 67 q 62 104 68 141 q 74 178 80 214 q 85 249 89 279 q 93 310 95 333 q 97 357 97 371 q 97 382 96 389 q 94 396 92 399 q 89 403 85 404 q 82 405 78 405 q 73 405 65 403 q 56 401 47 398 q 37 396 26 392 l 20 411 q 41 420 61 428 q 82 437 99 443 q 117 449 130 453 q 143 457 149 457 q 156 457 161 455 q 165 452 167 446 q 169 440 170 429 q 171 418 171 401 q 171 396 170 387 q 169 379 169 370 q 168 360 167 350 q 166 340 165 331 q 194 365 219 389 q 244 414 267 428 q 290 443 310 450 q 331 457 351 457 q 369 457 381 450 q 394 442 400 430 q 407 418 410 403 q 413 387 413 371 q 413 362 413 354 q 412 347 411 336 q 439 369 463 392 q 487 415 508 429 q 529 444 548 450 q 566 457 585 457 q 599 457 611 452 q 623 448 631 438 q 639 427 644 411 q 648 395 648 371 q 648 353 645 326 q 642 300 637 271 q 632 242 626 211 q 621 180 616 153 q 611 125 608 102 q 605 80 605 66 q 605 49 610 44 q 615 38 623 38 q 637 38 651 42 q 665 45 685 53 z"},"#":{"x_min":0,"x_max":402,"ha":402,"o":"m 173 288 l 259 288 l 305 413 l 219 413 z m 376 469 l 445 469 l 454 457 q 450 446 444 434 q 438 421 434 413 l 355 413 l 309 288 l 380 288 l 389 275 q 385 265 380 253 q 375 240 370 232 l 288 232 l 233 83 q 224 76 213 71 q 202 66 189 62 l 179 72 l 238 232 l 152 232 l 97 83 q 88 76 77 71 q 66 66 53 62 l 42 72 l 102 232 l 36 232 l 27 244 q 31 254 36 266 q 42 278 47 288 l 122 288 l 168 413 l 101 413 l 92 425 q 96 436 101 448 q 106 459 112 469 l 189 469 l 242 611 q 252 619 263 623 q 274 626 285 631 l 296 620 l 240 469 l 326 469 l 378 611 q 389 619 400 623 q 411 626 421 631 l 432 620 z"},",":{"x_min":0,"x_max":200,"ha":200,"o":"m 148 50 q 148 37 142 21 q 137 4 127 -15 q 117 -33 104 -53 q 90 -72 75 -90 q 59 -108 42 -124 q 25 -139 8 -149 l -9 -132 q 66 -53 66 0 q 66 9 63 17 q 61 26 54 32 q 48 38 38 40 q 28 43 13 41 l 9 63 q 14 69 29 77 q 43 85 60 93 q 77 101 93 107 q 108 112 116 112 q 125 107 131 102 q 137 98 141 91 q 145 84 146 75 q 148 65 148 50 z"},"n":{"x_min":0,"x_max":494,"ha":494,"o":"m 475 35 q 431 9 400 -6 q 369 -20 350 -20 q 333 -20 323 -5 q 314 11 314 37 q 314 46 317 69 q 320 91 325 122 q 330 152 336 186 q 342 220 347 251 q 352 282 355 306 q 358 331 358 342 q 358 379 350 394 q 342 408 321 408 q 314 408 299 400 q 283 393 263 377 q 243 361 221 338 q 199 314 181 283 q 167 260 159 227 q 150 194 142 147 q 134 104 132 72 q 130 41 131 12 q 125 9 115 5 q 105 0 95 -4 q 85 -8 76 -12 q 67 -17 61 -20 l 45 -5 q 52 27 58 65 q 65 103 71 140 q 77 178 83 215 q 88 252 92 283 q 96 314 98 337 q 100 361 100 372 q 100 383 99 390 q 98 396 95 400 q 93 403 90 404 q 86 405 82 405 q 78 405 69 403 q 61 401 52 398 q 42 396 30 392 l 23 411 q 43 420 64 428 q 85 437 103 443 q 121 449 135 453 q 148 457 154 457 q 161 457 165 455 q 168 453 170 447 q 172 441 172 430 q 173 419 173 402 q 173 396 172 387 q 172 378 171 367 q 170 357 169 347 q 168 337 168 331 q 194 364 221 388 q 248 412 274 427 q 300 443 324 450 q 348 457 370 457 q 385 457 397 453 q 409 448 417 438 q 425 428 429 412 q 433 396 433 372 q 433 355 430 330 q 427 304 422 275 q 417 245 411 214 q 405 183 400 154 q 396 126 392 103 q 389 80 389 66 q 389 49 394 43 q 398 37 407 37 q 418 37 433 41 q 447 45 468 53 z"},"h":{"x_min":0,"x_max":494,"ha":494,"o":"m 473 35 q 428 9 398 -6 q 369 -20 348 -20 q 334 -20 323 -5 q 312 11 312 37 q 312 46 315 69 q 318 91 323 122 q 328 152 333 186 q 338 220 343 251 q 348 282 351 306 q 354 331 354 342 q 354 360 353 373 q 351 385 347 393 q 344 401 337 404 q 331 407 320 407 q 313 407 297 400 q 281 392 260 377 q 240 361 218 338 q 195 315 177 284 q 164 261 155 226 q 146 191 139 147 q 135 120 132 100 q 130 79 129 63 q 127 47 127 35 q 127 22 128 12 q 122 9 112 5 q 103 0 93 -4 q 83 -8 73 -12 q 64 -17 58 -20 l 42 -5 q 46 21 53 60 q 60 99 67 146 q 75 192 83 244 q 91 296 99 347 q 106 399 114 448 q 121 497 126 538 q 131 580 134 611 q 137 642 137 657 q 137 668 135 675 q 134 682 131 685 q 128 688 125 689 q 121 690 117 690 q 112 690 103 688 q 94 686 84 683 q 73 680 61 677 l 55 696 q 76 705 96 713 q 117 722 135 728 q 153 734 167 738 q 181 742 187 742 q 201 742 208 733 q 216 725 216 702 q 216 690 213 663 q 210 636 205 601 q 201 566 195 526 q 189 486 183 448 q 178 411 173 380 q 168 349 165 331 q 193 366 221 390 q 249 415 275 429 q 302 444 326 450 q 350 457 372 457 q 403 457 416 438 q 429 418 429 371 q 429 354 426 329 q 423 303 418 274 q 414 245 408 213 q 403 182 398 154 q 394 126 390 103 q 387 80 387 66 q 387 49 393 43 q 399 37 405 37 q 418 37 433 41 q 448 45 466 53 z"},"z":{"x_min":0,"x_max":379,"ha":379,"o":"m 379 432 q 339 389 307 346 q 274 303 244 259 q 213 215 182 169 q 150 123 112 73 q 113 74 125 78 q 137 81 152 81 q 162 81 178 76 q 194 72 214 66 q 233 60 254 55 q 274 51 292 51 q 296 51 303 52 q 309 53 316 59 q 324 64 333 75 q 341 85 351 104 l 368 94 q 354 64 344 44 q 334 24 322 12 q 310 0 294 -5 q 279 -10 255 -10 q 231 -10 209 -5 q 188 0 169 7 q 150 13 133 18 q 115 23 100 23 q 92 23 84 21 q 76 18 65 13 q 55 8 41 1 q 27 -6 9 -15 l -2 1 q 22 30 49 66 q 75 101 101 138 q 127 176 153 213 q 179 250 202 284 q 225 317 244 344 q 264 372 278 388 l 131 388 q 119 388 111 386 q 103 384 96 377 q 90 371 84 358 q 78 346 71 325 l 52 329 q 61 373 70 405 q 79 436 83 457 q 92 455 103 451 q 114 447 131 447 l 369 447 z"},"B":{"x_min":0,"x_max":495,"ha":495,"o":"m 269 589 q 254 589 241 589 q 228 588 216 588 l 185 354 l 200 354 q 234 354 266 359 q 298 365 323 379 q 348 393 362 418 q 377 443 377 482 q 377 512 366 532 q 356 553 340 565 q 324 578 305 583 q 286 589 269 589 z m 253 317 q 231 317 213 315 q 195 312 179 310 l 143 51 q 142 47 148 42 q 158 37 169 34 q 180 31 192 29 q 204 27 216 27 q 228 26 238 26 q 270 26 296 39 q 322 53 341 75 q 359 97 370 125 q 380 153 380 183 q 380 208 373 231 q 366 255 351 274 q 335 293 311 305 q 287 317 253 317 z m 456 200 q 456 152 438 113 q 419 73 387 45 q 355 17 313 1 q 271 -15 225 -15 q 215 -15 202 -15 q 188 -14 173 -13 q 157 -12 141 -10 q 125 -9 109 -8 q 72 -4 32 0 l 0 0 l 3 21 q 34 28 52 36 q 71 44 72 51 l 145 583 q 123 580 104 576 q 86 573 69 569 l 69 599 q 91 605 115 611 q 138 617 164 621 q 190 625 219 627 q 249 630 282 630 q 322 630 353 622 q 385 613 407 597 q 429 582 441 559 q 453 536 453 508 q 453 482 445 458 q 437 435 423 414 q 408 394 388 378 q 369 362 345 353 q 370 347 390 333 q 411 320 425 300 q 440 280 448 255 q 456 229 456 200 z"},"K":{"x_min":0,"x_max":538,"ha":538,"o":"m 282 594 q 251 587 233 579 q 214 571 213 564 l 179 316 l 403 551 q 415 563 419 571 q 423 579 419 584 q 416 588 405 591 q 394 593 377 594 l 380 615 l 567 615 l 564 594 q 549 592 537 590 q 526 588 517 585 q 507 582 500 577 q 492 572 484 564 l 247 328 l 418 76 q 425 66 433 61 q 440 55 451 54 q 462 54 478 58 q 494 62 517 72 l 526 54 q 507 40 490 29 q 472 17 456 9 q 440 1 427 -3 q 413 -7 404 -7 q 396 -7 390 -6 q 384 -4 379 -1 q 374 3 368 9 q 363 15 357 25 l 178 311 l 143 51 q 142 45 157 36 q 172 28 203 21 l 200 0 l 0 0 l 3 21 q 34 28 52 36 q 71 44 72 51 l 143 564 q 144 570 129 579 q 114 587 82 594 l 85 615 l 285 615 z"},"R":{"x_min":0,"x_max":526,"ha":526,"o":"m 526 53 q 507 41 488 30 q 470 19 454 10 q 438 2 426 -2 q 414 -7 407 -7 q 399 -7 391 -4 q 384 -2 376 5 q 369 12 360 25 q 352 37 343 57 l 232 288 q 218 289 203 291 q 188 292 176 295 l 143 51 q 142 45 157 36 q 172 28 203 21 l 200 0 l 0 0 l 3 21 q 34 28 52 36 q 71 44 72 51 l 145 583 q 125 580 107 577 q 88 574 69 570 l 69 599 q 91 605 113 611 q 135 617 160 621 q 184 625 212 627 q 240 630 273 630 q 316 630 351 620 q 386 610 411 590 q 436 570 449 541 q 463 512 463 474 q 463 455 454 427 q 446 400 427 373 q 407 346 376 323 q 345 300 299 292 l 413 90 q 422 74 430 66 q 438 58 449 56 q 460 54 476 58 q 492 62 517 72 z m 251 589 l 233 589 q 225 589 216 588 l 181 331 q 195 327 209 325 q 223 323 237 323 q 268 323 296 332 q 324 340 346 357 q 367 374 380 400 q 393 425 393 460 q 393 496 380 521 q 366 545 345 561 q 325 576 300 582 q 274 589 251 589 z"},"T":{"x_min":0,"x_max":521,"ha":521,"o":"m 334 0 l 116 0 l 119 21 q 161 30 178 40 q 196 49 197 56 l 269 571 l 136 571 q 130 571 124 568 q 119 565 112 557 q 105 548 96 531 q 86 514 73 486 l 55 495 q 57 508 60 524 q 63 540 67 556 q 71 572 76 588 q 81 603 85 615 l 535 615 l 546 603 q 544 591 541 576 q 538 562 534 546 q 530 530 526 515 q 522 500 518 488 l 498 488 q 497 512 495 528 q 493 544 490 554 q 486 563 480 567 q 474 571 464 571 l 338 571 l 268 56 q 267 50 282 40 q 297 30 337 21 z"},"P":{"x_min":0,"x_max":471,"ha":471,"o":"m 476 460 q 476 418 460 382 q 444 346 416 319 q 388 292 350 277 q 312 261 270 261 q 251 261 232 266 q 213 271 200 278 l 195 314 q 211 307 228 302 q 244 298 260 298 q 292 298 319 308 q 346 319 365 338 q 384 357 395 384 q 406 410 406 442 q 406 483 393 511 q 379 539 357 556 q 334 574 305 581 q 275 589 242 589 l 229 589 q 223 589 216 588 l 143 51 q 142 48 145 44 q 148 41 156 37 q 165 33 179 29 q 194 25 217 21 l 214 0 l 0 0 l 3 21 q 34 28 52 36 q 71 44 72 51 l 145 583 q 127 581 109 578 q 90 574 69 569 l 69 598 q 89 605 111 612 q 133 618 158 622 q 183 625 211 628 q 240 630 273 630 q 320 630 357 619 q 395 608 421 587 q 448 565 462 534 q 476 502 476 460 z"},"|":{"x_min":0,"x_max":200,"ha":200,"o":"m 86 -139 q 76 -146 62 -153 q 47 -160 35 -164 l 21 -152 l 149 757 q 163 765 174 771 q 185 777 199 781 l 214 770 z"},"t":{"x_min":0,"x_max":307,"ha":307,"o":"m 283 57 q 259 39 235 24 q 211 10 190 0 q 168 -10 151 -15 q 134 -20 123 -20 q 111 -20 100 -13 q 89 -5 80 8 q 72 21 67 39 q 62 57 62 78 q 62 87 62 97 q 63 106 64 116 q 64 126 66 137 q 67 148 69 162 l 106 398 l 36 398 l 29 413 l 78 442 l 113 442 l 116 459 q 119 479 122 492 q 125 505 130 514 q 134 523 139 529 q 144 534 150 539 l 199 574 l 213 562 q 209 558 206 546 q 202 537 198 519 q 193 500 188 470 l 184 442 l 305 442 l 315 428 q 310 421 302 413 q 293 405 284 398 q 274 391 266 385 q 257 378 253 376 q 250 383 245 387 q 240 391 231 394 q 222 396 209 397 q 196 398 178 398 l 177 398 l 142 174 q 141 165 139 154 q 138 144 137 134 q 137 125 136 116 q 136 108 136 103 q 136 73 147 58 q 158 44 172 44 q 189 44 214 51 q 238 59 275 75 z"},"M":{"x_min":0,"x_max":738,"ha":738,"o":"m 748 594 q 735 594 718 590 q 701 585 683 577 l 624 51 q 623 45 639 36 q 655 28 687 21 l 684 0 l 484 0 l 487 21 q 518 28 537 36 q 557 44 558 51 l 611 517 l 347 0 l 327 0 l 191 511 l 125 51 q 124 45 139 36 q 153 28 185 21 l 182 0 l 2 0 l 5 21 q 37 28 54 36 q 72 44 73 51 l 149 576 q 134 586 118 590 q 102 594 89 594 l 92 615 l 221 615 q 225 615 228 614 q 230 612 233 608 q 235 604 237 595 q 240 587 243 574 l 365 137 l 589 574 q 596 587 600 595 q 605 604 609 608 q 612 612 615 614 q 619 615 623 615 l 750 615 z"},"g":{"x_min":0,"x_max":445,"ha":445,"o":"m 165 47 q 175 47 193 63 q 210 80 231 107 q 251 134 272 170 q 292 207 309 246 q 311 265 313 285 q 315 305 319 328 q 320 338 323 348 q 326 357 329 365 q 322 371 313 378 q 304 385 294 391 q 283 397 271 402 q 259 406 245 406 q 223 406 203 395 q 183 384 166 366 q 149 348 135 324 q 122 301 113 277 q 103 252 98 228 q 93 204 93 185 q 93 153 99 128 q 104 103 114 84 q 124 66 137 57 q 150 47 165 47 z m 429 440 q 413 426 403 406 q 394 386 389 351 q 382 293 379 245 q 376 197 374 156 q 372 114 368 76 q 365 38 358 0 q 350 -50 327 -95 q 305 -139 275 -172 q 244 -206 207 -225 q 170 -244 132 -244 q 112 -244 88 -238 q 64 -232 44 -223 q 24 -214 11 -204 q -2 -194 -2 -185 q -2 -177 4 -166 q 10 -156 19 -147 q 27 -138 35 -131 q 43 -125 46 -125 q 50 -125 54 -130 q 59 -135 65 -142 q 71 -149 79 -157 q 88 -166 100 -173 q 112 -180 129 -185 q 146 -190 169 -190 q 217 -190 245 -147 q 272 -105 287 -23 q 291 4 294 28 q 296 52 298 75 q 300 98 301 119 q 302 141 303 164 q 287 133 266 101 q 246 68 222 42 q 199 15 175 -3 q 151 -20 130 -20 q 114 -20 95 -11 q 77 -1 61 19 q 45 39 35 71 q 25 103 25 149 q 25 188 34 224 q 42 261 60 295 q 78 328 105 358 q 132 387 168 411 q 182 420 197 428 q 213 437 229 443 q 246 449 262 453 q 279 457 294 457 q 305 457 315 454 q 325 451 335 446 q 344 441 353 435 q 361 429 369 424 q 380 435 393 443 q 405 451 418 457 z"},"j":{"x_min":0,"x_max":245,"ha":245,"o":"m 183 425 q 183 419 182 406 q 181 393 179 375 q 177 356 175 336 q 172 315 170 295 q 168 275 166 259 q 164 242 163 231 q 161 214 159 192 q 157 170 154 145 q 151 120 148 91 q 145 62 140 32 q 130 -25 115 -64 q 101 -103 84 -129 q 67 -156 48 -174 q 28 -191 8 -207 q -5 -217 -21 -224 q -36 -231 -51 -236 q -66 -240 -80 -242 q -93 -244 -102 -244 q -115 -244 -130 -240 q -146 -236 -158 -230 q -171 -225 -179 -218 q -188 -212 -188 -207 q -188 -201 -181 -190 q -175 -180 -166 -171 q -157 -161 -148 -154 q -139 -147 -134 -147 q -130 -147 -125 -153 q -119 -160 -109 -167 q -99 -174 -84 -181 q -70 -187 -48 -187 q -7 -187 20 -137 q 47 -86 62 5 q 69 42 73 74 q 78 107 81 135 q 83 163 85 184 q 87 206 89 220 q 89 228 91 241 q 92 254 94 269 q 95 284 97 300 q 99 315 100 330 q 102 344 102 355 q 103 366 103 371 q 103 382 102 389 q 100 396 97 399 q 95 402 91 403 q 87 404 83 404 q 79 404 71 402 q 62 400 54 398 q 45 396 34 392 l 27 410 q 47 419 68 428 q 88 437 106 443 q 124 449 137 453 q 150 457 156 457 q 169 457 176 451 q 183 445 183 425 z m 224 616 q 224 603 219 589 q 215 576 207 565 q 199 554 188 547 q 176 540 163 540 q 131 540 131 574 q 131 587 135 601 q 140 614 147 625 q 155 637 166 644 q 177 651 191 651 q 207 651 215 642 q 224 633 224 616 z"},"i":{"x_min":0,"x_max":246,"ha":246,"o":"m 222 35 q 199 21 181 11 q 163 1 147 -6 q 132 -13 120 -17 q 108 -20 97 -20 q 81 -20 71 -5 q 61 11 61 37 q 61 52 65 79 q 68 106 74 139 q 79 172 85 208 q 92 244 97 276 q 103 309 106 334 q 110 359 110 371 q 110 382 108 389 q 107 396 104 399 q 102 402 98 403 q 94 404 90 404 q 86 404 78 402 q 70 400 62 398 q 52 396 41 392 l 34 410 q 55 419 75 428 q 95 437 113 443 q 130 449 144 453 q 157 457 163 457 q 177 457 182 448 q 188 438 188 416 q 188 402 184 374 q 181 347 175 312 q 169 278 163 241 q 156 204 150 169 q 145 135 141 108 q 137 80 137 66 q 137 51 140 44 q 144 37 152 37 q 167 37 181 41 q 195 45 215 53 z m 235 616 q 235 603 231 589 q 227 576 219 565 q 211 554 200 547 q 189 540 175 540 q 160 540 152 549 q 144 558 144 574 q 144 587 148 601 q 152 614 160 625 q 168 637 179 644 q 190 651 204 651 q 219 651 227 642 q 235 633 235 616 z"},"y":{"x_min":0,"x_max":452,"ha":452,"o":"m 436 420 q 436 403 427 377 q 418 351 398 307 q 377 264 344 199 q 312 134 264 40 q 231 -24 199 -76 q 167 -128 132 -166 q 98 -203 61 -224 q 24 -244 -18 -244 q -32 -244 -45 -242 q -58 -239 -68 -236 q -77 -232 -83 -228 q -88 -223 -88 -219 q -88 -213 -84 -203 q -79 -192 -72 -181 q -65 -169 -57 -160 q -49 -150 -42 -147 q -31 -155 -22 -159 q -13 -164 -5 -166 q 3 -167 11 -168 q 19 -168 27 -168 q 67 -168 105 -130 q 143 -91 184 -21 q 179 7 172 42 q 165 78 156 116 q 147 153 138 191 q 129 229 120 262 q 110 295 102 322 q 93 349 86 364 q 75 389 67 396 q 59 404 51 404 q 46 404 38 402 q 30 400 22 398 q 13 396 3 392 l -3 410 q 18 419 36 428 q 55 437 70 443 q 84 449 96 453 q 107 457 113 457 q 120 457 125 454 q 130 450 135 443 q 140 436 144 424 q 149 412 155 395 q 164 369 175 333 q 186 297 197 255 q 208 214 219 169 q 230 125 239 81 q 254 111 270 143 q 286 175 301 207 q 315 238 328 266 q 340 295 350 319 q 359 343 365 360 q 370 377 370 386 q 370 411 344 412 q 329 414 300 401 l 291 419 q 326 439 353 448 q 379 457 396 457 q 404 457 412 456 q 419 455 424 451 q 430 447 433 439 q 436 432 436 420 z"},"@":{"x_min":0,"x_max":778,"ha":778,"o":"m 567 411 l 566 410 q 562 403 560 394 q 558 385 555 371 q 548 336 542 299 q 535 262 531 229 q 526 197 523 172 q 521 147 521 136 q 521 108 523 91 q 526 73 530 63 q 534 53 540 50 q 545 46 551 46 q 563 46 582 62 q 601 78 619 106 q 638 134 653 171 q 668 208 675 249 q 683 304 679 351 q 675 398 661 436 q 647 474 625 503 q 603 533 574 552 q 546 572 512 583 q 479 593 443 593 q 397 593 357 579 q 317 566 282 542 q 248 518 219 485 q 190 453 169 414 q 147 375 133 333 q 118 290 112 246 q 100 157 116 88 q 133 20 172 -28 q 210 -76 266 -100 q 322 -125 388 -125 q 425 -125 461 -116 q 497 -108 529 -95 q 561 -82 586 -67 q 611 -53 627 -40 l 635 -67 q 616 -85 588 -106 q 560 -126 524 -144 q 489 -161 447 -172 q 404 -183 357 -183 q 276 -183 211 -154 q 147 -125 104 -72 q 62 -19 44 57 q 27 133 40 227 q 48 282 68 335 q 87 388 117 435 q 147 481 186 521 q 225 561 270 590 q 314 619 365 635 q 416 651 469 651 q 534 651 588 625 q 643 600 679 551 q 716 502 731 431 q 746 359 733 268 q 727 226 713 188 q 699 150 680 118 q 660 86 637 61 q 614 35 590 17 q 566 -1 543 -10 q 520 -20 501 -20 q 492 -20 484 -14 q 475 -8 468 9 q 461 26 457 55 q 452 85 452 132 q 440 110 424 84 q 408 57 389 34 q 371 11 351 -5 q 332 -20 311 -20 q 294 -20 276 -11 q 258 -1 242 19 q 227 39 217 71 q 207 103 207 149 q 207 188 215 224 q 222 261 238 295 q 254 329 279 358 q 303 388 338 411 q 351 420 367 428 q 382 437 399 443 q 416 449 433 453 q 449 457 465 457 q 484 457 501 448 q 519 438 533 429 q 544 437 557 444 q 569 451 582 457 l 592 440 q 582 432 576 426 q 570 420 566 411 z m 460 209 q 464 232 468 256 q 472 281 476 303 q 480 326 483 344 q 486 363 488 373 q 481 379 473 385 q 465 390 456 395 q 446 400 436 403 q 426 406 415 406 q 393 406 374 395 q 354 384 339 366 q 323 348 311 324 q 299 301 291 277 q 283 252 278 228 q 274 204 274 185 q 274 153 279 128 q 285 103 294 84 q 303 66 315 57 q 328 47 342 47 q 354 47 369 62 q 384 77 399 100 q 415 124 431 152 q 447 181 460 209 z"},".":{"x_min":0,"x_max":200,"ha":200,"o":"m 138 74 q 138 59 133 43 q 128 27 118 14 q 109 1 96 -7 q 83 -15 66 -15 q 46 -15 36 -2 q 25 11 25 33 q 25 47 31 63 q 36 78 46 91 q 56 104 69 112 q 83 120 98 120 q 116 120 127 107 q 138 95 138 74 z"},"p":{"x_min":0,"x_max":471,"ha":471,"o":"m 298 393 q 285 393 265 381 q 245 369 223 346 q 201 324 179 293 q 158 262 142 225 l 130 153 q 137 139 150 121 q 164 103 181 88 q 198 72 217 62 q 237 52 257 52 q 283 52 303 66 q 324 81 335 107 q 344 126 349 147 q 354 167 357 188 q 359 208 360 227 q 361 245 361 260 q 361 294 355 319 q 350 344 341 361 q 332 377 321 385 q 310 393 298 393 z m 170 425 q 170 410 167 384 q 164 357 157 314 q 188 363 215 391 q 243 419 265 434 q 288 449 307 453 q 325 457 340 457 q 359 457 375 447 q 392 438 405 418 q 417 399 425 371 q 432 343 432 306 q 432 257 418 203 q 405 148 374 92 q 363 72 348 52 q 334 33 317 17 q 300 0 281 -10 q 261 -20 240 -20 q 224 -20 208 -10 q 192 0 177 16 q 161 32 147 53 q 133 73 120 94 l 105 3 q 88 -98 84 -151 q 81 -205 86 -218 q 79 -220 69 -223 q 59 -227 49 -230 q 38 -234 29 -238 q 19 -241 13 -244 l -3 -230 q -1 -216 4 -186 q 9 -156 16 -116 q 23 -76 32 -29 q 40 19 49 67 q 57 116 65 164 q 73 212 79 253 q 85 293 89 324 q 93 355 93 371 q 93 382 91 389 q 89 396 85 399 q 82 402 78 403 q 74 404 70 404 q 65 404 57 402 q 49 400 41 398 q 32 396 21 392 l 14 410 q 35 419 56 428 q 77 437 95 443 q 113 449 127 453 q 141 457 147 457 q 157 457 163 450 q 170 444 170 425 z"},"X":{"x_min":0,"x_max":572,"ha":572,"o":"m 530 0 l 329 0 l 332 21 q 352 23 364 26 q 377 29 383 34 q 389 39 389 45 q 390 52 385 62 l 283 268 l 140 62 q 125 41 139 32 q 153 24 194 21 l 191 0 l -10 0 l -7 21 q 22 23 44 32 q 66 42 80 62 l 258 319 l 143 553 q 137 564 132 571 q 126 578 119 582 q 112 586 102 589 q 92 592 77 594 l 80 615 l 281 615 l 278 594 q 240 590 227 583 q 213 575 224 553 l 312 375 l 437 553 q 445 564 445 572 q 445 579 438 583 q 430 588 416 590 q 402 593 383 594 l 386 615 l 587 615 l 584 594 q 568 592 555 590 q 542 587 532 582 q 521 578 513 571 q 504 563 497 553 l 336 325 l 467 62 q 472 52 478 45 q 484 38 492 33 q 500 28 510 26 q 521 23 533 21 z"},"*":{"x_min":0,"x_max":354,"ha":354,"o":"m 203 580 l 335 676 q 339 672 345 668 q 350 665 356 660 q 361 656 366 651 q 371 647 373 643 l 371 623 l 213 554 l 341 491 q 338 479 335 462 q 333 446 328 435 l 310 424 l 196 528 l 191 369 q 186 366 179 363 q 172 359 165 356 q 158 353 152 350 q 145 347 140 346 l 125 355 l 167 527 l 35 431 q 26 438 14 447 q 2 457 -3 464 l 0 485 l 157 553 l 29 616 q 30 622 31 630 q 33 637 34 645 q 36 653 38 660 q 40 667 42 672 l 60 683 l 174 580 l 179 739 q 184 742 191 745 q 197 749 204 752 q 211 755 218 758 q 225 761 230 762 l 246 752 z"},"Y":{"x_min":0,"x_max":559,"ha":559,"o":"m 358 0 l 140 0 l 143 21 q 186 30 203 40 q 220 49 221 56 l 250 269 q 241 305 227 346 q 213 387 196 427 q 179 468 161 504 q 144 540 127 564 q 122 571 116 576 q 111 580 103 582 q 95 584 83 584 q 71 584 54 582 l 50 603 q 63 606 79 610 q 95 613 110 616 q 126 619 140 621 q 154 623 163 623 q 176 623 188 604 q 199 588 210 566 q 222 544 234 519 q 246 494 257 468 q 268 441 278 416 q 287 391 294 369 q 301 347 305 331 l 456 562 q 464 576 453 583 q 442 589 409 594 l 412 615 l 588 615 l 585 594 q 554 588 537 581 q 520 575 511 562 l 321 265 l 292 56 q 292 53 295 49 q 298 45 306 40 q 314 35 327 30 q 341 25 361 21 z"},"c":{"x_min":0,"x_max":388,"ha":388,"o":"m 397 398 q 387 391 375 382 q 364 374 353 367 q 342 361 333 356 q 323 352 317 352 q 312 352 304 360 q 296 369 285 379 q 275 389 262 397 q 249 406 233 406 q 210 406 192 395 q 173 384 158 366 q 143 348 132 324 q 120 301 113 275 q 105 250 101 224 q 97 198 97 175 q 97 143 104 118 q 111 92 124 74 q 137 57 154 47 q 172 37 193 37 q 202 37 215 40 q 229 43 247 51 q 265 59 287 73 q 309 86 335 108 q 339 103 343 97 q 348 92 350 88 q 312 53 282 32 q 251 11 227 -1 q 202 -12 182 -16 q 163 -20 145 -20 q 128 -20 108 -12 q 87 -3 69 17 q 51 38 38 72 q 26 106 26 157 q 26 190 33 225 q 40 260 55 293 q 70 327 95 357 q 120 387 156 411 q 169 420 186 428 q 203 437 220 443 q 238 449 256 453 q 273 457 288 457 q 310 457 326 449 q 343 440 356 430 q 370 419 380 410 q 390 400 397 398 z"},"!":{"x_min":0,"x_max":200,"ha":200,"o":"m 138 74 q 138 59 133 43 q 128 27 118 14 q 109 1 96 -7 q 83 -15 66 -15 q 46 -15 36 -2 q 25 11 25 33 q 25 47 31 63 q 36 78 46 91 q 56 104 69 112 q 83 120 98 120 q 116 120 127 107 q 138 95 138 74 z m 122 190 q 112 183 105 179 q 98 175 86 171 l 74 181 l 116 655 q 123 660 133 667 q 144 673 155 680 q 167 687 178 693 q 190 698 200 701 l 218 689 z"},"/":{"x_min":0,"x_max":400,"ha":400,"o":"m 21 -139 q 16 -143 8 -146 q 0 -150 -8 -153 q -17 -156 -26 -159 q -34 -162 -40 -164 l -54 -152 l 387 757 q 400 765 416 771 q 432 777 446 781 l 461 770 z"},"[":{"x_min":0,"x_max":286,"ha":286,"o":"m 335 768 q 332 756 326 744 q 321 732 317 726 l 189 726 l 72 -108 l 197 -108 l 211 -122 q 208 -132 203 -144 q 198 -156 193 -164 l 1 -164 l 134 781 l 322 781 z"},"6":{"x_min":0,"x_max":402,"ha":402,"o":"m 220 322 q 192 322 166 309 q 139 295 111 263 q 108 243 106 223 q 105 203 105 182 q 105 109 131 73 q 157 37 201 37 q 221 37 236 45 q 251 53 263 67 q 274 81 282 98 q 290 116 294 134 q 299 153 301 172 q 303 190 303 206 q 303 241 296 263 q 288 286 276 299 q 264 312 250 317 q 235 322 220 322 z m 390 581 q 337 570 294 545 q 251 521 218 486 q 185 452 161 409 q 138 367 124 320 q 158 352 189 364 q 220 376 246 376 q 309 376 340 339 q 372 302 372 236 q 372 209 366 180 q 360 151 348 124 q 336 96 319 71 q 302 45 280 26 q 258 7 232 -4 q 206 -15 176 -15 q 144 -15 118 -1 q 92 13 73 38 q 54 63 44 98 q 33 133 33 176 q 33 229 44 279 q 55 330 76 375 q 98 421 128 460 q 159 500 198 531 q 237 562 285 582 q 332 603 386 610 z"},"r":{"x_min":0,"x_max":355,"ha":355,"o":"m 375 415 q 369 407 362 396 q 355 385 348 374 q 341 364 334 356 q 328 349 323 349 q 314 349 307 354 q 301 360 295 366 q 290 372 284 377 q 278 383 271 383 q 258 383 241 365 q 225 348 208 320 q 191 292 176 257 q 160 222 150 187 q 145 168 140 146 q 136 124 133 101 q 130 77 128 54 q 127 32 128 12 q 122 9 112 5 q 103 0 93 -4 q 83 -8 73 -12 q 64 -17 58 -20 l 42 -5 q 49 30 56 67 q 63 104 69 141 q 75 178 80 213 q 85 248 89 278 q 93 309 95 333 q 97 356 97 371 q 97 382 95 389 q 94 396 91 399 q 88 402 85 403 q 81 404 77 404 q 72 404 64 402 q 56 400 47 398 q 38 396 27 392 l 20 410 q 41 419 61 428 q 82 437 100 443 q 118 449 132 453 q 145 457 151 457 q 158 457 162 455 q 166 452 167 446 q 169 440 169 429 q 170 418 170 401 q 170 396 168 383 q 167 370 165 355 q 163 340 161 326 q 159 311 157 302 q 181 350 202 380 q 223 411 241 428 q 260 445 277 451 q 294 457 310 457 q 319 457 326 452 q 333 447 340 440 q 348 434 356 427 q 364 419 375 415 z"},"2":{"x_min":0,"x_max":402,"ha":402,"o":"m 383 491 q 383 461 369 424 q 355 387 321 336 q 287 285 229 217 q 170 149 80 56 l 263 56 q 271 56 277 60 q 283 64 288 70 q 294 77 298 85 q 303 93 307 101 q 315 121 321 146 l 342 140 l 317 0 l 7 0 l 0 36 q 89 125 149 193 q 209 261 245 314 q 282 367 297 407 q 313 446 313 477 q 313 512 291 535 q 269 557 228 557 q 210 557 195 548 q 180 539 169 524 q 158 509 151 491 q 144 473 142 456 q 134 452 128 448 q 121 444 114 441 q 107 438 100 435 q 92 433 82 432 l 72 447 q 75 472 93 500 q 111 527 137 550 q 164 573 197 588 q 230 603 264 603 q 289 603 310 596 q 332 590 348 576 q 364 562 373 542 q 383 521 383 491 z"},"{":{"x_min":0,"x_max":313,"ha":313,"o":"m 362 758 q 342 746 325 731 q 308 716 294 698 q 280 679 270 658 q 261 636 257 611 q 253 583 254 564 q 254 546 256 531 q 257 515 257 497 q 257 479 253 450 q 250 430 242 410 q 233 391 221 373 q 208 356 191 342 q 173 328 153 319 q 175 314 189 303 q 203 292 210 276 q 218 259 219 237 q 220 215 216 188 q 212 159 206 138 q 200 118 194 100 q 188 82 183 63 q 177 45 174 21 q 170 -6 171 -27 q 171 -47 178 -64 q 185 -81 198 -95 q 211 -110 233 -124 l 219 -154 q 184 -137 159 -119 q 134 -101 119 -78 q 105 -56 101 -28 q 96 0 101 35 q 105 64 111 83 q 116 102 122 119 q 128 136 134 156 q 140 176 144 206 q 149 246 134 266 q 118 286 84 286 l 75 286 q 72 286 70 286 q 67 286 64 285 q 61 284 54 283 l 50 309 q 106 324 137 354 q 168 384 174 421 q 177 440 177 455 q 178 469 177 480 q 177 492 176 502 q 175 512 175 523 q 174 534 175 549 q 175 563 178 583 q 188 649 234 698 q 280 748 353 781 z"},"9":{"x_min":0,"x_max":402,"ha":402,"o":"m 205 271 q 241 271 268 290 q 294 308 315 338 q 317 355 318 373 q 319 390 319 408 q 319 448 312 475 q 304 502 292 520 q 281 537 266 544 q 251 552 236 552 q 213 552 196 544 q 179 536 166 522 q 153 509 144 491 q 135 473 130 454 q 124 434 122 414 q 119 394 119 376 q 119 344 128 324 q 136 303 149 292 q 162 280 177 275 q 192 271 205 271 z m 392 421 q 392 337 369 262 q 345 187 300 128 q 255 68 189 29 q 123 -10 37 -21 l 33 8 q 91 21 136 46 q 181 72 215 107 q 249 142 271 186 q 293 229 305 280 q 279 251 247 234 q 215 217 179 217 q 150 217 126 227 q 103 237 86 256 q 69 274 60 299 q 51 324 51 354 q 51 381 58 411 q 65 440 79 468 q 92 495 111 520 q 130 544 153 563 q 177 582 204 592 q 231 603 261 603 q 288 603 312 592 q 335 581 353 559 q 371 536 382 502 q 392 467 392 421 z"}," ":{"x_min":0,"x_max":200,"ha":200,"o":""},"I":{"x_min":0,"x_max":280,"ha":280,"o":"m 292 594 q 261 587 243 579 q 224 571 223 564 l 152 51 q 151 45 166 36 q 181 28 213 21 l 210 0 l 10 0 l 13 21 q 44 28 62 36 q 81 44 82 51 l 152 564 q 153 570 138 579 q 123 587 92 594 l 95 615 l 295 615 z"},"H":{"x_min":0,"x_max":603,"ha":603,"o":"m 282 594 q 251 587 233 579 q 214 571 213 564 l 183 344 l 455 344 l 485 564 q 486 570 471 579 q 456 587 425 594 l 427 615 l 628 615 l 625 594 q 594 587 576 579 q 557 571 556 564 l 485 51 q 484 45 499 36 q 514 28 546 21 l 543 0 l 343 0 l 346 21 q 377 28 395 36 q 413 44 414 51 l 448 300 l 177 300 l 143 51 q 142 45 157 36 q 172 28 203 21 l 200 0 l 0 0 l 3 21 q 34 28 52 36 q 71 44 72 51 l 143 564 q 144 570 129 579 q 114 587 82 594 l 85 615 l 285 615 z"},"4":{"x_min":0,"x_max":402,"ha":402,"o":"m 79 222 l 244 222 l 283 508 z m 369 208 q 363 201 358 195 q 353 190 348 186 q 343 182 339 179 q 334 175 329 171 l 298 171 l 282 51 q 281 47 283 44 q 286 41 292 37 q 298 33 310 29 q 321 25 339 21 l 336 0 l 121 0 l 124 21 q 153 26 171 31 q 190 36 201 40 q 211 44 216 48 q 220 52 221 56 l 236 171 l 19 171 l 6 187 l 276 573 q 296 582 312 591 q 329 601 342 608 l 355 591 l 305 223 l 358 223 z"},"~":{"x_min":0,"x_max":480,"ha":480,"o":"m 471 378 q 458 354 439 328 q 421 303 401 281 q 380 260 358 247 q 335 233 314 233 q 294 233 275 245 q 255 257 235 272 q 215 287 195 299 q 175 311 156 311 q 133 311 112 292 q 90 273 66 232 l 44 245 q 57 269 75 295 q 93 320 114 342 q 135 363 157 376 q 179 390 201 390 q 222 390 242 378 q 262 366 282 351 q 302 336 321 324 q 339 312 358 312 q 380 312 402 331 q 424 350 449 390 z"},"D":{"x_min":0,"x_max":546,"ha":546,"o":"m 526 364 q 526 321 518 277 q 509 233 493 193 q 476 153 452 117 q 427 82 395 56 q 362 30 322 15 q 282 0 235 0 l 0 0 l 3 21 q 34 28 52 36 q 71 44 72 51 l 145 583 l 70 574 l 70 605 q 126 619 181 624 q 236 630 286 630 q 343 630 388 611 q 432 592 463 557 q 494 522 510 473 q 526 424 526 364 z m 246 589 l 231 589 q 224 589 217 588 l 146 68 q 145 61 148 56 q 151 51 159 47 q 167 44 183 42 q 198 41 222 41 q 258 41 289 55 q 319 68 344 92 q 369 115 388 146 q 408 178 421 213 q 434 248 440 284 q 447 321 447 355 q 447 407 434 450 q 420 493 395 524 q 370 555 332 572 q 295 589 246 589 z"},"^":{"x_min":0,"x_max":458,"ha":458,"o":"m 417 310 q 403 299 391 291 q 379 284 363 276 l 348 289 l 270 642 l 109 310 q 104 305 96 300 q 89 295 81 290 q 74 286 67 282 q 60 278 55 276 l 46 289 l 252 714 q 258 720 267 726 q 276 732 285 738 q 294 744 303 749 q 312 753 319 757 z"},"0":{"x_min":0,"x_max":402,"ha":402,"o":"m 317 384 q 317 424 310 454 q 304 485 292 505 q 281 526 265 536 q 250 547 233 547 q 206 547 185 529 q 164 510 149 481 q 134 452 124 415 q 114 378 108 342 q 102 305 100 271 q 97 238 97 215 q 97 129 120 85 q 143 42 182 42 q 210 42 231 61 q 252 80 267 110 q 282 140 292 178 q 301 216 307 254 q 312 292 315 326 q 317 360 317 384 z m 392 383 q 392 354 389 320 q 386 287 379 251 q 372 216 359 181 q 347 146 328 115 q 312 88 294 64 q 275 41 254 23 q 233 5 209 -5 q 184 -15 156 -15 q 122 -15 97 2 q 72 19 55 48 q 39 78 31 118 q 23 159 23 206 q 23 234 26 267 q 29 300 36 334 q 43 368 55 402 q 67 437 84 469 q 99 497 117 521 q 136 546 157 564 q 179 582 204 593 q 229 603 258 603 q 292 603 317 586 q 343 570 359 541 q 376 511 384 471 q 392 430 392 383 z"},"F":{"x_min":0,"x_max":435,"ha":435,"o":"m 461 603 q 458 590 455 575 q 451 560 447 545 q 442 530 437 516 q 432 502 428 493 l 408 493 q 410 516 409 531 q 408 545 405 554 q 401 563 396 567 q 390 571 381 571 l 213 571 l 184 359 l 342 359 l 353 345 q 348 338 342 331 q 335 324 329 317 q 323 310 316 303 q 310 297 305 293 q 289 310 267 315 q 245 320 213 320 l 179 320 l 142 51 q 141 45 158 38 q 174 30 217 21 l 214 0 l 0 0 l 3 21 q 34 28 52 36 q 71 44 72 51 l 143 564 q 144 570 129 579 q 114 587 82 594 l 85 615 l 449 615 z"},"`":{"x_min":0,"x_max":296,"ha":296,"o":"m 276 511 q 266 505 260 503 q 254 501 246 501 l 124 689 l 139 707 q 145 708 154 709 q 163 710 173 711 q 183 711 192 712 q 202 712 208 712 z"},"k":{"x_min":0,"x_max":439,"ha":439,"o":"m 215 692 q 215 673 212 644 q 209 616 204 580 q 200 544 193 504 q 187 463 180 420 q 173 377 166 333 q 159 289 153 248 l 258 327 q 292 353 313 371 q 334 389 341 400 q 347 411 335 415 q 324 420 291 419 l 289 438 q 318 442 344 448 q 371 454 402 454 q 425 454 432 447 q 439 440 439 424 q 439 417 428 403 q 418 390 398 372 q 377 354 349 333 q 320 312 283 290 l 226 255 q 239 240 252 218 q 265 195 278 171 q 291 147 303 123 q 315 99 327 80 q 339 61 350 49 q 360 37 370 37 q 381 37 394 38 q 407 40 426 50 l 434 33 q 402 6 378 -7 q 354 -19 335 -19 q 317 -19 301 -2 q 284 14 268 40 q 252 66 237 97 q 222 128 208 158 q 193 187 180 211 q 166 234 153 245 q 146 203 141 166 q 136 128 133 97 q 130 67 129 45 q 129 23 132 13 q 125 10 115 5 q 105 1 95 -4 q 84 -8 75 -12 q 65 -17 59 -20 l 42 -5 q 44 9 49 41 q 54 73 61 116 q 68 160 76 211 q 85 263 93 317 q 102 371 110 423 q 118 476 124 521 q 130 567 134 602 q 137 637 137 656 q 137 668 136 675 q 134 682 131 685 q 128 688 124 689 q 120 690 114 690 q 110 690 101 688 q 92 686 83 683 q 73 680 61 677 l 54 696 q 75 705 96 713 q 117 722 135 728 q 153 734 167 738 q 180 742 186 742 q 193 742 198 741 q 204 739 207 734 q 211 729 213 719 q 215 709 215 692 z"},"u":{"x_min":0,"x_max":499,"ha":499,"o":"m 476 33 q 437 7 409 -7 q 381 -20 363 -20 q 354 -20 344 -11 q 335 -3 329 17 q 322 36 320 68 q 317 99 320 145 q 300 109 278 79 q 256 48 232 26 q 208 4 183 -8 q 157 -20 131 -20 q 121 -20 109 -12 q 96 -5 85 10 q 74 25 67 48 q 59 70 59 100 q 59 115 62 137 q 64 160 68 186 q 72 211 77 239 q 82 267 86 292 q 90 318 93 339 q 95 359 95 371 q 95 382 94 389 q 92 396 90 399 q 87 402 83 403 q 80 404 75 404 q 71 404 62 402 q 54 400 46 398 q 36 396 25 392 l 19 410 q 40 419 60 428 q 81 437 99 443 q 116 449 130 453 q 143 457 149 457 q 163 457 168 448 q 173 438 173 416 q 173 402 170 379 q 167 356 163 329 q 158 301 153 272 q 148 243 144 215 q 140 188 137 165 q 134 142 134 128 q 134 81 144 60 q 154 39 172 39 q 182 39 198 49 q 214 58 234 79 q 255 101 279 135 q 303 169 329 218 q 333 239 336 260 q 340 282 343 302 q 347 321 349 339 q 351 357 351 371 q 351 382 350 389 q 349 396 346 399 q 344 402 341 403 q 337 404 333 404 q 329 404 321 402 q 313 400 306 398 q 297 396 287 392 l 280 410 q 300 419 320 428 q 340 437 357 443 q 374 449 387 453 q 399 457 406 457 q 419 457 424 448 q 428 438 428 416 q 428 402 425 379 q 422 356 418 329 q 414 302 408 273 q 403 243 398 216 q 394 188 391 164 q 388 140 388 124 q 388 80 395 58 q 401 37 413 37 q 426 37 439 40 q 452 43 469 51 z"},"]":{"x_min":0,"x_max":286,"ha":286,"o":"m 160 -164 l -28 -164 l -42 -150 q -38 -139 -33 -126 q -28 -114 -24 -108 l 104 -108 l 221 726 l 97 726 l 83 739 q 86 750 91 761 q 97 772 101 781 l 292 781 z"},"U":{"x_min":0,"x_max":599,"ha":599,"o":"m 625 594 q 594 587 577 579 q 560 571 559 564 l 515 250 q 506 186 485 136 q 464 87 433 53 q 402 20 361 2 q 320 -15 272 -15 q 232 -15 198 -3 q 165 9 141 33 q 117 56 104 91 q 91 125 91 170 q 91 196 95 226 l 143 564 q 144 570 129 579 q 114 587 82 594 l 85 615 l 285 615 l 282 594 q 251 587 233 579 q 214 571 213 564 l 170 249 q 168 235 167 221 q 167 207 167 194 q 167 160 175 132 q 184 104 200 84 q 216 64 241 53 q 265 42 297 42 q 329 42 355 58 q 382 73 403 99 q 423 125 437 159 q 450 192 455 229 l 500 564 q 501 570 487 579 q 474 587 442 594 l 445 615 l 628 615 z"},"o":{"x_min":0,"x_max":422,"ha":422,"o":"m 326 246 q 326 321 299 360 q 271 400 221 400 q 186 400 162 380 q 138 359 124 329 q 109 298 103 262 q 96 226 96 195 q 96 162 104 133 q 112 104 127 82 q 141 61 160 48 q 180 35 202 35 q 225 35 242 45 q 260 55 274 72 q 288 89 298 111 q 308 132 314 156 q 320 179 323 203 q 326 226 326 246 z m 396 273 q 396 240 389 207 q 381 173 367 142 q 353 110 332 82 q 312 53 284 31 q 271 21 257 11 q 243 2 229 -5 q 214 -12 199 -16 q 184 -20 169 -20 q 135 -20 108 -6 q 82 9 63 34 q 45 59 35 94 q 26 128 26 168 q 26 203 32 236 q 38 268 51 298 q 64 329 86 356 q 108 384 140 410 q 165 430 195 443 q 225 457 255 457 q 293 457 320 443 q 347 430 364 405 q 380 381 388 347 q 396 313 396 273 z"},"N":{"x_min":0,"x_max":605,"ha":605,"o":"m 629 594 q 597 589 580 581 q 564 572 563 564 l 483 -15 q 473 -14 464 -12 q 456 -10 449 -6 q 442 -2 437 5 q 431 11 425 22 l 182 490 l 122 51 q 121 45 134 36 q 148 26 181 21 l 178 0 l 0 0 l 3 21 q 36 25 52 35 q 69 44 70 51 l 141 563 q 128 578 113 584 q 98 590 77 594 l 80 615 l 167 615 q 178 615 184 615 q 190 614 195 611 q 199 607 203 599 q 208 591 215 577 l 451 126 l 511 564 q 512 567 509 571 q 506 575 499 579 q 492 583 480 587 q 468 591 451 594 l 454 615 l 632 615 z"},"+":{"x_min":0,"x_max":376,"ha":376,"o":"m 352 291 q 350 286 348 280 l 343 268 q 340 262 337 256 q 334 250 333 247 l 219 247 l 201 115 q 196 113 190 111 q 184 108 178 106 q 171 104 165 103 q 159 101 154 100 l 144 111 l 163 247 l 46 247 l 37 258 q 41 268 46 281 q 51 293 57 303 l 171 303 l 190 435 q 198 438 213 442 q 227 447 237 449 l 247 438 l 228 303 l 343 303 z"},"G":{"x_min":0,"x_max":524,"ha":524,"o":"m 516 263 q 490 255 478 245 q 465 234 464 223 q 462 210 459 189 q 456 167 453 146 q 450 124 448 104 q 445 84 444 75 q 407 45 378 28 q 350 10 327 0 q 304 -9 284 -12 q 265 -15 245 -15 q 205 -15 167 1 q 129 18 101 49 q 72 81 54 126 q 37 172 37 231 q 37 277 48 324 q 59 372 78 415 q 98 458 125 495 q 153 532 186 558 q 228 591 278 610 q 329 630 387 630 q 402 630 419 626 q 436 623 453 617 q 470 610 486 601 q 502 592 515 580 q 518 578 513 569 q 507 561 499 551 q 490 541 480 531 q 470 521 463 516 l 449 519 q 437 534 422 544 q 408 555 392 561 q 375 567 357 569 q 338 572 316 572 q 297 572 271 559 q 244 546 218 525 q 193 505 173 473 q 153 440 139 403 q 125 365 117 325 q 110 286 110 252 q 110 200 126 161 q 142 123 167 98 q 191 72 222 60 q 253 48 283 48 q 310 48 335 56 q 360 63 377 76 l 397 223 q 397 228 395 233 q 393 238 382 243 q 371 248 349 252 q 328 257 291 263 l 294 284 l 519 284 z"},"q":{"x_min":0,"x_max":448,"ha":448,"o":"m 170 47 q 183 47 200 62 q 217 76 235 100 q 254 123 273 153 q 292 182 308 212 l 334 371 q 327 376 317 383 q 308 389 298 394 q 287 399 275 402 q 263 406 250 406 q 228 406 207 395 q 187 384 169 366 q 151 348 136 324 q 122 301 111 277 q 101 252 95 228 q 89 204 89 185 q 89 153 96 128 q 104 103 115 84 q 127 66 141 57 q 156 47 170 47 z m 437 440 q 429 433 423 428 q 418 422 414 415 q 410 408 407 398 q 404 388 401 371 q 390 306 379 240 q 368 174 358 113 q 349 51 341 -5 q 333 -60 328 -104 q 324 -148 323 -178 q 323 -208 328 -218 q 321 -221 312 -224 q 302 -227 291 -230 q 281 -234 271 -238 q 261 -241 255 -244 l 238 -230 q 241 -211 246 -176 q 251 -140 259 -93 q 267 -45 276 11 q 285 67 294 127 q 277 99 258 72 q 238 45 217 25 q 196 4 175 -8 q 154 -20 135 -20 q 119 -20 100 -11 q 81 -1 64 19 q 48 39 37 71 q 26 103 26 149 q 26 188 36 225 q 46 262 65 296 q 84 330 111 359 q 138 389 173 411 q 187 420 202 428 q 218 437 234 443 q 250 449 267 453 q 283 457 299 457 q 310 457 320 454 q 330 451 340 447 q 350 442 358 437 q 367 432 375 427 q 387 436 399 443 q 412 450 426 457 z"},"d":{"x_min":0,"x_max":473,"ha":473,"o":"m 303 207 q 308 236 313 274 q 319 311 326 353 q 318 361 308 371 q 299 380 288 388 q 277 396 265 401 q 252 406 239 406 q 216 406 197 395 q 178 384 161 366 q 145 348 132 324 q 120 301 111 277 q 102 252 97 228 q 93 204 93 185 q 93 153 99 128 q 106 103 117 84 q 127 66 141 57 q 155 47 169 47 q 182 47 198 59 q 214 71 232 93 q 249 115 267 144 q 286 173 303 207 z m 451 33 q 410 5 383 -7 q 356 -20 340 -20 q 331 -20 323 -12 q 315 -5 309 13 q 304 32 300 62 q 297 92 297 137 q 280 106 261 78 q 242 50 221 28 q 200 6 178 -7 q 156 -20 135 -20 q 118 -20 99 -10 q 80 0 64 21 q 47 42 37 75 q 26 108 26 154 q 26 192 34 229 q 42 265 59 298 q 76 331 102 360 q 127 388 162 411 q 176 420 192 428 q 208 436 224 443 q 241 449 257 453 q 274 457 289 457 q 301 457 314 449 q 327 441 339 431 q 345 467 350 501 q 355 535 359 565 q 363 594 366 618 q 368 642 368 657 q 368 668 366 675 q 365 682 362 685 q 358 688 354 689 q 351 690 346 690 q 342 690 333 688 q 325 686 316 683 q 306 680 294 677 l 288 696 q 309 705 329 713 q 350 722 368 728 q 386 734 399 738 q 413 742 419 742 q 433 742 439 733 q 446 725 446 702 q 446 683 442 653 q 439 623 433 585 q 428 547 421 505 q 414 462 406 419 q 398 376 391 334 q 384 292 379 256 q 373 220 370 191 q 366 163 366 146 q 366 89 372 64 q 377 38 388 38 q 401 38 414 41 q 428 43 445 51 z"},"1":{"x_min":0,"x_max":402,"ha":402,"o":"m 325 0 l 31 0 l 34 26 q 69 30 93 36 q 117 42 131 47 q 146 53 152 59 q 158 64 159 70 l 212 459 q 215 479 215 489 q 215 500 211 507 q 208 510 201 512 q 194 514 180 513 q 167 513 146 510 q 125 507 95 500 l 89 525 q 108 531 135 541 q 161 551 189 563 q 216 575 241 587 q 267 599 282 608 l 296 591 l 225 70 q 224 65 228 59 q 232 54 244 48 q 255 42 276 36 q 296 30 329 26 z"},"5":{"x_min":0,"x_max":402,"ha":402,"o":"m 390 583 q 384 575 377 567 q 370 559 362 551 q 355 544 348 538 q 341 531 335 527 l 165 527 q 162 513 156 490 q 151 467 145 444 q 138 420 132 400 q 126 379 123 368 q 141 374 165 377 q 189 381 212 381 q 246 381 272 369 q 298 356 316 336 q 334 315 344 289 q 353 262 353 233 q 353 204 347 174 q 340 145 328 117 q 316 89 299 65 q 281 41 259 23 q 236 5 208 -5 q 180 -15 148 -15 q 107 -15 70 2 q 33 20 -2 58 l 18 91 q 40 74 58 63 q 76 52 91 46 q 106 40 119 37 q 131 35 144 35 q 181 35 207 52 q 232 68 249 94 q 265 120 273 152 q 281 185 281 217 q 281 241 274 261 q 267 281 254 296 q 241 311 222 319 q 203 327 178 327 q 128 327 76 288 l 58 304 q 63 322 70 345 q 76 368 83 394 q 91 420 98 447 q 105 474 112 499 q 119 525 124 548 q 130 571 133 588 l 325 588 q 337 588 347 589 q 357 590 364 592 q 373 594 379 597 z"}}}
